<mxfile host="app.diagrams.net" modified="2022-03-24T23:48:26.897Z" agent="5.0 (Macintosh; Intel Mac OS X 10_15_7) AppleWebKit/537.36 (KHTML, like Gecko) Chrome/99.0.4844.74 Safari/537.36" etag="VYTFF_IDD9JYMMv8He3t" version="17.1.2" type="github">
  <diagram id="EIiqovopByde9tMhJ7DX" name="Page-1">
    <mxGraphModel dx="1351" dy="766" grid="0" gridSize="10" guides="1" tooltips="1" connect="1" arrows="1" fold="1" page="1" pageScale="1" pageWidth="850" pageHeight="1100" math="0" shadow="0">
      <root>
        <mxCell id="0" />
        <mxCell id="1" parent="0" />
        <mxCell id="-Evwn0WYxXY8F1ZthDra-2" value="Script.js" style="ellipse;whiteSpace=wrap;html=1;aspect=fixed;sketch=1;rounded=1;fontSize=16;fontFamily=Over the Rainbow;fontSource=https%3A%2F%2Ffonts.googleapis.com%2Fcss%3Ffamily%3DOver%2Bthe%2BRainbow;" parent="1" vertex="1">
          <mxGeometry x="362" y="50" width="90" height="90" as="geometry" />
        </mxCell>
        <mxCell id="-Evwn0WYxXY8F1ZthDra-3" value="Compile" style="swimlane;sketch=1;rounded=1;fontFamily=Over the Rainbow;fontSource=https%3A%2F%2Ffonts.googleapis.com%2Fcss%3Ffamily%3DOver%2Bthe%2BRainbow;fontSize=16;fillColor=#dae8fc;strokeColor=#6c8ebf;" parent="1" vertex="1">
          <mxGeometry x="47" y="186" width="732" height="418" as="geometry" />
        </mxCell>
        <mxCell id="-Evwn0WYxXY8F1ZthDra-23" style="edgeStyle=orthogonalEdgeStyle;rounded=1;sketch=1;orthogonalLoop=1;jettySize=auto;html=1;exitX=0.75;exitY=1;exitDx=0;exitDy=0;entryX=0;entryY=0;entryDx=26.5;entryDy=0;entryPerimeter=0;fontFamily=Over the Rainbow;fontSource=https%3A%2F%2Ffonts.googleapis.com%2Fcss%3Ffamily%3DOver%2Bthe%2BRainbow;fontSize=18;" parent="-Evwn0WYxXY8F1ZthDra-3" source="-Evwn0WYxXY8F1ZthDra-10" target="-Evwn0WYxXY8F1ZthDra-16" edge="1">
          <mxGeometry relative="1" as="geometry" />
        </mxCell>
        <mxCell id="-Evwn0WYxXY8F1ZthDra-10" value="Scanner" style="rounded=1;whiteSpace=wrap;html=1;sketch=1;fontFamily=Over the Rainbow;fontSource=https%3A%2F%2Ffonts.googleapis.com%2Fcss%3Ffamily%3DOver%2Bthe%2BRainbow;fontSize=18;glass=1;shadow=0;" parent="-Evwn0WYxXY8F1ZthDra-3" vertex="1">
          <mxGeometry x="118" y="39" width="120" height="60" as="geometry" />
        </mxCell>
        <mxCell id="-Evwn0WYxXY8F1ZthDra-22" style="edgeStyle=orthogonalEdgeStyle;rounded=1;sketch=0;orthogonalLoop=1;jettySize=auto;html=1;exitX=0;exitY=0.5;exitDx=0;exitDy=0;entryX=0.25;entryY=1;entryDx=0;entryDy=0;fontFamily=Over the Rainbow;fontSource=https%3A%2F%2Ffonts.googleapis.com%2Fcss%3Ffamily%3DOver%2Bthe%2BRainbow;fontSize=18;" parent="-Evwn0WYxXY8F1ZthDra-3" source="-Evwn0WYxXY8F1ZthDra-12" target="-Evwn0WYxXY8F1ZthDra-10" edge="1">
          <mxGeometry relative="1" as="geometry" />
        </mxCell>
        <mxCell id="3AOPMjmNAZMlr2lFEa5b-1" value="" style="edgeStyle=orthogonalEdgeStyle;rounded=0;orthogonalLoop=1;jettySize=auto;html=1;sketch=1;curved=1;" parent="-Evwn0WYxXY8F1ZthDra-3" source="-Evwn0WYxXY8F1ZthDra-24" target="-Evwn0WYxXY8F1ZthDra-49" edge="1">
          <mxGeometry relative="1" as="geometry" />
        </mxCell>
        <mxCell id="Wdb9buxMbOkoy24LBLcs-11" style="edgeStyle=orthogonalEdgeStyle;curved=1;sketch=1;orthogonalLoop=1;jettySize=auto;html=1;fontFamily=Over the Rainbow;fontSource=https%3A%2F%2Ffonts.googleapis.com%2Fcss%3Ffamily%3DOver%2Bthe%2BRainbow;fontSize=18;" edge="1" parent="-Evwn0WYxXY8F1ZthDra-3" source="-Evwn0WYxXY8F1ZthDra-24" target="-Evwn0WYxXY8F1ZthDra-36">
          <mxGeometry relative="1" as="geometry" />
        </mxCell>
        <mxCell id="-Evwn0WYxXY8F1ZthDra-24" value="Parser" style="rounded=1;whiteSpace=wrap;html=1;shadow=0;glass=1;sketch=1;fontFamily=Over the Rainbow;fontSource=https%3A%2F%2Ffonts.googleapis.com%2Fcss%3Ffamily%3DOver%2Bthe%2BRainbow;fontSize=18;" parent="-Evwn0WYxXY8F1ZthDra-3" vertex="1">
          <mxGeometry x="495" y="34" width="90" height="62" as="geometry" />
        </mxCell>
        <mxCell id="3AOPMjmNAZMlr2lFEa5b-4" style="edgeStyle=orthogonalEdgeStyle;curved=1;sketch=1;orthogonalLoop=1;jettySize=auto;html=1;entryX=1;entryY=1;entryDx=0;entryDy=0;" parent="-Evwn0WYxXY8F1ZthDra-3" source="-Evwn0WYxXY8F1ZthDra-28" target="-Evwn0WYxXY8F1ZthDra-24" edge="1">
          <mxGeometry relative="1" as="geometry" />
        </mxCell>
        <mxCell id="-Evwn0WYxXY8F1ZthDra-28" value="AST" style="shape=image;html=1;verticalAlign=top;verticalLabelPosition=bottom;labelBackgroundColor=#ffffff;imageAspect=0;aspect=fixed;image=https://cdn4.iconfinder.com/data/icons/free-line-christmas-icons/24/Christmas_Tree-128.png;rounded=1;shadow=0;glass=1;sketch=1;fontFamily=Over the Rainbow;fontSource=https%3A%2F%2Ffonts.googleapis.com%2Fcss%3Ffamily%3DOver%2Bthe%2BRainbow;fontSize=18;" parent="-Evwn0WYxXY8F1ZthDra-3" vertex="1">
          <mxGeometry x="646" y="307" width="54" height="54" as="geometry" />
        </mxCell>
        <mxCell id="-Evwn0WYxXY8F1ZthDra-11" value="&lt;font style=&quot;font-size: 6px&quot;&gt;source&lt;/font&gt;" style="rounded=1;whiteSpace=wrap;html=1;shadow=0;glass=1;sketch=1;fontFamily=Over the Rainbow;fontSource=https%3A%2F%2Ffonts.googleapis.com%2Fcss%3Ffamily%3DOver%2Bthe%2BRainbow;fontSize=18;labelPosition=center;verticalLabelPosition=top;align=center;verticalAlign=bottom;textDirection=ltr;spacingLeft=0;" parent="-Evwn0WYxXY8F1ZthDra-3" vertex="1">
          <mxGeometry x="10" y="164" width="108" height="26" as="geometry" />
        </mxCell>
        <mxCell id="-Evwn0WYxXY8F1ZthDra-12" value="&lt;font style=&quot;font-size: 6px&quot;&gt;buffer&lt;/font&gt;" style="rounded=1;whiteSpace=wrap;html=1;strokeWidth=2;fillWeight=4;hachureGap=8;hachureAngle=45;fillColor=#1ba1e2;sketch=1;shadow=0;glass=1;fontFamily=Over the Rainbow;fontSource=https%3A%2F%2Ffonts.googleapis.com%2Fcss%3Ffamily%3DOver%2Bthe%2BRainbow;fontSize=18;direction=south;align=left;" parent="-Evwn0WYxXY8F1ZthDra-3" vertex="1">
          <mxGeometry x="66" y="164" width="24" height="28" as="geometry" />
        </mxCell>
        <mxCell id="-Evwn0WYxXY8F1ZthDra-32" value="" style="group" parent="-Evwn0WYxXY8F1ZthDra-3" vertex="1" connectable="0">
          <mxGeometry x="245" y="169" width="112" height="17" as="geometry" />
        </mxCell>
        <mxCell id="-Evwn0WYxXY8F1ZthDra-16" value="" style="shape=cube;whiteSpace=wrap;html=1;boundedLbl=1;backgroundOutline=1;darkOpacity=0.05;darkOpacity2=0.1;rounded=1;shadow=0;glass=1;sketch=1;fontFamily=Over the Rainbow;fontSource=https%3A%2F%2Ffonts.googleapis.com%2Fcss%3Ffamily%3DOver%2Bthe%2BRainbow;fontSize=18;size=8;labelPosition=center;verticalLabelPosition=bottom;align=center;verticalAlign=top;" parent="-Evwn0WYxXY8F1ZthDra-32" vertex="1">
          <mxGeometry width="32.58181818181818" height="16" as="geometry" />
        </mxCell>
        <mxCell id="-Evwn0WYxXY8F1ZthDra-30" value="tokens" style="shape=cube;whiteSpace=wrap;html=1;boundedLbl=1;backgroundOutline=1;darkOpacity=0.05;darkOpacity2=0.1;rounded=1;shadow=0;glass=1;sketch=1;fontFamily=Over the Rainbow;fontSource=https%3A%2F%2Ffonts.googleapis.com%2Fcss%3Ffamily%3DOver%2Bthe%2BRainbow;fontSize=18;size=8;labelPosition=center;verticalLabelPosition=bottom;align=center;verticalAlign=top;" parent="-Evwn0WYxXY8F1ZthDra-32" vertex="1">
          <mxGeometry x="37.67272727272727" y="1" width="32.58181818181818" height="16" as="geometry" />
        </mxCell>
        <mxCell id="-Evwn0WYxXY8F1ZthDra-31" value="" style="shape=cube;whiteSpace=wrap;html=1;boundedLbl=1;backgroundOutline=1;darkOpacity=0.05;darkOpacity2=0.1;rounded=1;shadow=0;glass=1;sketch=1;fontFamily=Over the Rainbow;fontSource=https%3A%2F%2Ffonts.googleapis.com%2Fcss%3Ffamily%3DOver%2Bthe%2BRainbow;fontSize=18;size=8;labelPosition=center;verticalLabelPosition=bottom;align=center;verticalAlign=top;" parent="-Evwn0WYxXY8F1ZthDra-32" vertex="1">
          <mxGeometry x="79.41818181818181" y="1" width="32.58181818181818" height="16" as="geometry" />
        </mxCell>
        <mxCell id="-Evwn0WYxXY8F1ZthDra-33" style="edgeStyle=orthogonalEdgeStyle;rounded=1;sketch=1;orthogonalLoop=1;jettySize=auto;html=1;entryX=0;entryY=0.25;entryDx=0;entryDy=0;fontFamily=Over the Rainbow;fontSource=https%3A%2F%2Ffonts.googleapis.com%2Fcss%3Ffamily%3DOver%2Bthe%2BRainbow;fontSize=6;exitX=0;exitY=0;exitDx=24;exitDy=0;exitPerimeter=0;curved=1;" parent="-Evwn0WYxXY8F1ZthDra-3" source="-Evwn0WYxXY8F1ZthDra-30" target="-Evwn0WYxXY8F1ZthDra-24" edge="1">
          <mxGeometry relative="1" as="geometry" />
        </mxCell>
        <mxCell id="Wdb9buxMbOkoy24LBLcs-13" style="edgeStyle=orthogonalEdgeStyle;curved=1;sketch=1;orthogonalLoop=1;jettySize=auto;html=1;fontFamily=Over the Rainbow;fontSource=https%3A%2F%2Ffonts.googleapis.com%2Fcss%3Ffamily%3DOver%2Bthe%2BRainbow;fontSize=18;" edge="1" parent="-Evwn0WYxXY8F1ZthDra-3" source="-Evwn0WYxXY8F1ZthDra-36" target="Wdb9buxMbOkoy24LBLcs-3">
          <mxGeometry relative="1" as="geometry" />
        </mxCell>
        <mxCell id="-Evwn0WYxXY8F1ZthDra-36" value="" style="shape=image;html=1;verticalAlign=top;verticalLabelPosition=bottom;labelBackgroundColor=#ffffff;imageAspect=0;aspect=fixed;image=https://cdn1.iconfinder.com/data/icons/flat-christmas-icons-1/75/_christmas_tree-128.png;rounded=1;shadow=0;glass=1;sketch=1;fontFamily=Over the Rainbow;fontSource=https%3A%2F%2Ffonts.googleapis.com%2Fcss%3Ffamily%3DOver%2Bthe%2BRainbow;fontSize=6;" parent="-Evwn0WYxXY8F1ZthDra-3" vertex="1">
          <mxGeometry x="471" y="145.75" width="64.5" height="64.5" as="geometry" />
        </mxCell>
        <mxCell id="3AOPMjmNAZMlr2lFEa5b-3" value="" style="edgeStyle=orthogonalEdgeStyle;sketch=1;orthogonalLoop=1;jettySize=auto;html=1;curved=1;exitX=0.5;exitY=1;exitDx=0;exitDy=0;" parent="-Evwn0WYxXY8F1ZthDra-3" source="-Evwn0WYxXY8F1ZthDra-37" target="-Evwn0WYxXY8F1ZthDra-28" edge="1">
          <mxGeometry relative="1" as="geometry" />
        </mxCell>
        <mxCell id="-Evwn0WYxXY8F1ZthDra-37" value="PreParser" style="rounded=1;whiteSpace=wrap;html=1;shadow=0;glass=1;sketch=1;fontFamily=Over the Rainbow;fontSource=https%3A%2F%2Ffonts.googleapis.com%2Fcss%3Ffamily%3DOver%2Bthe%2BRainbow;fontSize=18;" parent="-Evwn0WYxXY8F1ZthDra-3" vertex="1">
          <mxGeometry x="610" y="174" width="117" height="65" as="geometry" />
        </mxCell>
        <mxCell id="-Evwn0WYxXY8F1ZthDra-42" value="+ - * / ( ) -&amp;gt; tokens&lt;br&gt;const, let -&amp;gt; keyword tokens&lt;br&gt;&amp;nbsp;foo, bar -&amp;gt; identifier tokens&lt;br&gt;123.00 true false -&amp;gt; literal" style="whiteSpace=wrap;html=1;rounded=1;shadow=0;glass=1;sketch=1;fontFamily=Over the Rainbow;fontSource=https%3A%2F%2Ffonts.googleapis.com%2Fcss%3Ffamily%3DOver%2Bthe%2BRainbow;fontSize=6;opacity=0;textOpacity=40;" parent="-Evwn0WYxXY8F1ZthDra-3" vertex="1">
          <mxGeometry x="42" y="85.5" width="120" height="60" as="geometry" />
        </mxCell>
        <mxCell id="-Evwn0WYxXY8F1ZthDra-44" value="&lt;strike&gt;&quot;const&quot;&lt;/strike&gt;" style="text;html=1;strokeColor=none;fillColor=none;align=center;verticalAlign=middle;whiteSpace=wrap;rounded=0;shadow=0;glass=1;sketch=1;fontFamily=Over the Rainbow;fontSource=https%3A%2F%2Ffonts.googleapis.com%2Fcss%3Ffamily%3DOver%2Bthe%2BRainbow;fontSize=6;opacity=0;" parent="-Evwn0WYxXY8F1ZthDra-3" vertex="1">
          <mxGeometry x="176" y="158" width="38" height="21" as="geometry" />
        </mxCell>
        <mxCell id="-Evwn0WYxXY8F1ZthDra-46" value="enum_const" style="text;html=1;strokeColor=none;fillColor=none;align=center;verticalAlign=middle;whiteSpace=wrap;rounded=0;shadow=0;glass=1;sketch=1;fontFamily=Over the Rainbow;fontSource=https%3A%2F%2Ffonts.googleapis.com%2Fcss%3Ffamily%3DOver%2Bthe%2BRainbow;fontSize=6;opacity=0;" parent="-Evwn0WYxXY8F1ZthDra-3" vertex="1">
          <mxGeometry x="173" y="186" width="44" height="10" as="geometry" />
        </mxCell>
        <mxCell id="-Evwn0WYxXY8F1ZthDra-48" style="edgeStyle=orthogonalEdgeStyle;curved=1;rounded=1;sketch=0;orthogonalLoop=1;jettySize=auto;html=1;exitX=0;exitY=0;exitDx=4;exitDy=12;exitPerimeter=0;entryX=1;entryY=0.75;entryDx=0;entryDy=0;fontFamily=Over the Rainbow;fontSource=https%3A%2F%2Ffonts.googleapis.com%2Fcss%3Ffamily%3DOver%2Bthe%2BRainbow;fontSize=6;" parent="-Evwn0WYxXY8F1ZthDra-3" source="-Evwn0WYxXY8F1ZthDra-16" target="-Evwn0WYxXY8F1ZthDra-46" edge="1">
          <mxGeometry relative="1" as="geometry">
            <Array as="points">
              <mxPoint x="223" y="181" />
              <mxPoint x="223" y="194" />
            </Array>
          </mxGeometry>
        </mxCell>
        <mxCell id="-Evwn0WYxXY8F1ZthDra-43" style="edgeStyle=orthogonalEdgeStyle;curved=1;rounded=1;sketch=0;orthogonalLoop=1;jettySize=auto;html=1;fontFamily=Over the Rainbow;fontSource=https%3A%2F%2Ffonts.googleapis.com%2Fcss%3Ffamily%3DOver%2Bthe%2BRainbow;fontSize=6;entryX=1;entryY=0.5;entryDx=0;entryDy=0;" parent="-Evwn0WYxXY8F1ZthDra-3" source="-Evwn0WYxXY8F1ZthDra-16" target="-Evwn0WYxXY8F1ZthDra-44" edge="1">
          <mxGeometry relative="1" as="geometry">
            <mxPoint x="213.83582089552237" y="177" as="targetPoint" />
          </mxGeometry>
        </mxCell>
        <mxCell id="3AOPMjmNAZMlr2lFEa5b-2" value="" style="edgeStyle=orthogonalEdgeStyle;rounded=0;orthogonalLoop=1;jettySize=auto;html=1;sketch=1;exitX=0.59;exitY=0.983;exitDx=0;exitDy=0;exitPerimeter=0;curved=1;" parent="-Evwn0WYxXY8F1ZthDra-3" source="-Evwn0WYxXY8F1ZthDra-49" target="-Evwn0WYxXY8F1ZthDra-37" edge="1">
          <mxGeometry relative="1" as="geometry">
            <mxPoint x="669" y="90" as="sourcePoint" />
          </mxGeometry>
        </mxCell>
        <mxCell id="-Evwn0WYxXY8F1ZthDra-49" value="&amp;lt;&lt;font color=&quot;#3333ff&quot;&gt;func_kw&lt;/font&gt;&amp;gt; [&lt;font color=&quot;#66b2ff&quot;&gt;identifier&lt;/font&gt;] &lt;br&gt;&amp;lt;&lt;font color=&quot;#6666ff&quot;&gt;left_pren&lt;/font&gt;&amp;gt;[&lt;font color=&quot;#ff66b3&quot;&gt;arg_list&lt;/font&gt;...]&lt;br&gt;&amp;lt;&lt;font color=&quot;#6666ff&quot;&gt;right_pren&lt;/font&gt;&amp;gt; &lt;br&gt;&amp;lt;&lt;font color=&quot;#cc0066&quot;&gt;left_br&lt;/font&gt;&amp;gt;&lt;br&gt;[&lt;font color=&quot;#ff8000&quot;&gt;statements&lt;/font&gt;...]&lt;br&gt;&amp;lt;&lt;font color=&quot;#cc0066&quot;&gt;right_br&lt;/font&gt;&amp;gt;" style="rounded=1;whiteSpace=wrap;html=1;shadow=0;glass=1;sketch=1;fontFamily=Over the Rainbow;fontSource=https%3A%2F%2Ffonts.googleapis.com%2Fcss%3Ffamily%3DOver%2Bthe%2BRainbow;fontSize=6;opacity=0;align=left;" parent="-Evwn0WYxXY8F1ZthDra-3" vertex="1">
          <mxGeometry x="639" y="38" width="78" height="60" as="geometry" />
        </mxCell>
        <mxCell id="Wdb9buxMbOkoy24LBLcs-8" style="edgeStyle=orthogonalEdgeStyle;curved=1;sketch=1;orthogonalLoop=1;jettySize=auto;html=1;fontFamily=Over the Rainbow;fontSource=https%3A%2F%2Ffonts.googleapis.com%2Fcss%3Ffamily%3DOver%2Bthe%2BRainbow;fontSize=18;" edge="1" parent="-Evwn0WYxXY8F1ZthDra-3" source="Wdb9buxMbOkoy24LBLcs-1" target="Wdb9buxMbOkoy24LBLcs-6">
          <mxGeometry relative="1" as="geometry" />
        </mxCell>
        <mxCell id="Wdb9buxMbOkoy24LBLcs-1" value="bytecode" style="shape=image;html=1;verticalAlign=top;verticalLabelPosition=bottom;labelBackgroundColor=#ffffff;imageAspect=0;aspect=fixed;image=https://cdn1.iconfinder.com/data/icons/CrystalClear/128x128/apps/kthememgr.png" vertex="1" parent="-Evwn0WYxXY8F1ZthDra-3">
          <mxGeometry x="284" y="269" width="64" height="64" as="geometry" />
        </mxCell>
        <mxCell id="Wdb9buxMbOkoy24LBLcs-12" style="edgeStyle=orthogonalEdgeStyle;curved=1;sketch=1;orthogonalLoop=1;jettySize=auto;html=1;fontFamily=Over the Rainbow;fontSource=https%3A%2F%2Ffonts.googleapis.com%2Fcss%3Ffamily%3DOver%2Bthe%2BRainbow;fontSize=18;" edge="1" parent="-Evwn0WYxXY8F1ZthDra-3" source="Wdb9buxMbOkoy24LBLcs-3" target="Wdb9buxMbOkoy24LBLcs-1">
          <mxGeometry relative="1" as="geometry" />
        </mxCell>
        <mxCell id="Wdb9buxMbOkoy24LBLcs-3" value="&lt;font style=&quot;font-size: 18px&quot;&gt;BytecodeGenerator&lt;/font&gt;" style="rounded=1;whiteSpace=wrap;html=1;fontFamily=Over the Rainbow;fontSource=https%3A%2F%2Ffonts.googleapis.com%2Fcss%3Ffamily%3DOver%2Bthe%2BRainbow;" vertex="1" parent="-Evwn0WYxXY8F1ZthDra-3">
          <mxGeometry x="392" y="271" width="182" height="60" as="geometry" />
        </mxCell>
        <mxCell id="Wdb9buxMbOkoy24LBLcs-10" style="edgeStyle=orthogonalEdgeStyle;curved=1;sketch=1;orthogonalLoop=1;jettySize=auto;html=1;entryX=1;entryY=0.5;entryDx=0;entryDy=0;fontFamily=Over the Rainbow;fontSource=https%3A%2F%2Ffonts.googleapis.com%2Fcss%3Ffamily%3DOver%2Bthe%2BRainbow;fontSize=18;" edge="1" parent="-Evwn0WYxXY8F1ZthDra-3" source="Wdb9buxMbOkoy24LBLcs-6" target="Wdb9buxMbOkoy24LBLcs-9">
          <mxGeometry relative="1" as="geometry" />
        </mxCell>
        <mxCell id="Wdb9buxMbOkoy24LBLcs-6" value="&lt;font style=&quot;font-size: 18px&quot;&gt;CodeGenerator&lt;/font&gt;" style="rounded=1;whiteSpace=wrap;html=1;fontFamily=Over the Rainbow;fontSource=https%3A%2F%2Ffonts.googleapis.com%2Fcss%3Ffamily%3DOver%2Bthe%2BRainbow;" vertex="1" parent="-Evwn0WYxXY8F1ZthDra-3">
          <mxGeometry x="125" y="270" width="120" height="60" as="geometry" />
        </mxCell>
        <mxCell id="Wdb9buxMbOkoy24LBLcs-9" value="" style="shape=image;html=1;verticalAlign=top;verticalLabelPosition=bottom;labelBackgroundColor=#ffffff;imageAspect=0;aspect=fixed;image=https://cdn1.iconfinder.com/data/icons/unicons-line-vol-5/24/robot-128.png;fontFamily=Over the Rainbow;fontSource=https%3A%2F%2Ffonts.googleapis.com%2Fcss%3Ffamily%3DOver%2Bthe%2BRainbow;fontSize=18;" vertex="1" parent="-Evwn0WYxXY8F1ZthDra-3">
          <mxGeometry x="19" y="264.5" width="67" height="67" as="geometry" />
        </mxCell>
        <mxCell id="Wdb9buxMbOkoy24LBLcs-23" style="edgeStyle=orthogonalEdgeStyle;sketch=1;orthogonalLoop=1;jettySize=auto;html=1;fontFamily=Over the Rainbow;fontSource=https%3A%2F%2Ffonts.googleapis.com%2Fcss%3Ffamily%3DOver%2Bthe%2BRainbow;fontSize=18;entryX=0.5;entryY=0;entryDx=0;entryDy=0;curved=1;" edge="1" parent="1" source="-Evwn0WYxXY8F1ZthDra-4" target="Wdb9buxMbOkoy24LBLcs-24">
          <mxGeometry relative="1" as="geometry">
            <mxPoint x="345" y="898.8461538461538" as="targetPoint" />
          </mxGeometry>
        </mxCell>
        <mxCell id="-Evwn0WYxXY8F1ZthDra-4" value="Run" style="swimlane;sketch=1;rounded=1;fontFamily=Over the Rainbow;fontSource=https%3A%2F%2Ffonts.googleapis.com%2Fcss%3Ffamily%3DOver%2Bthe%2BRainbow;fontSize=16;" parent="1" vertex="1">
          <mxGeometry x="220" y="626" width="338" height="222" as="geometry" />
        </mxCell>
        <mxCell id="Wdb9buxMbOkoy24LBLcs-14" value="" style="shape=image;html=1;verticalAlign=top;verticalLabelPosition=bottom;labelBackgroundColor=#ffffff;imageAspect=0;aspect=fixed;image=https://cdn0.iconfinder.com/data/icons/super-batman/24/3151595_-_decepticon_movie_robot_transformers-128.png;fontFamily=Over the Rainbow;fontSource=https%3A%2F%2Ffonts.googleapis.com%2Fcss%3Ffamily%3DOver%2Bthe%2BRainbow;fontSize=18;" vertex="1" parent="-Evwn0WYxXY8F1ZthDra-4">
          <mxGeometry x="133.5" y="73" width="71" height="71" as="geometry" />
        </mxCell>
        <mxCell id="Wdb9buxMbOkoy24LBLcs-18" style="edgeStyle=orthogonalEdgeStyle;curved=1;sketch=1;orthogonalLoop=1;jettySize=auto;html=1;fontFamily=Over the Rainbow;fontSource=https%3A%2F%2Ffonts.googleapis.com%2Fcss%3Ffamily%3DOver%2Bthe%2BRainbow;fontSize=18;entryX=1;entryY=1;entryDx=0;entryDy=0;exitX=1;exitY=0;exitDx=0;exitDy=0;" edge="1" parent="-Evwn0WYxXY8F1ZthDra-4" source="Wdb9buxMbOkoy24LBLcs-14" target="Wdb9buxMbOkoy24LBLcs-14">
          <mxGeometry relative="1" as="geometry">
            <mxPoint x="320.63829787234044" y="107.78723404255311" as="targetPoint" />
            <Array as="points">
              <mxPoint x="233" y="27" />
              <mxPoint x="301" y="27" />
              <mxPoint x="301" y="184" />
              <mxPoint x="233" y="184" />
            </Array>
          </mxGeometry>
        </mxCell>
        <mxCell id="Wdb9buxMbOkoy24LBLcs-21" value="deoptimize" style="edgeLabel;html=1;align=center;verticalAlign=bottom;resizable=0;points=[];fontSize=18;fontFamily=Over the Rainbow;horizontal=0;" vertex="1" connectable="0" parent="Wdb9buxMbOkoy24LBLcs-18">
          <mxGeometry x="-0.1005" y="-1" relative="1" as="geometry">
            <mxPoint x="15" as="offset" />
          </mxGeometry>
        </mxCell>
        <mxCell id="Wdb9buxMbOkoy24LBLcs-19" style="edgeStyle=orthogonalEdgeStyle;curved=1;sketch=1;orthogonalLoop=1;jettySize=auto;html=1;exitX=0;exitY=0;exitDx=0;exitDy=0;entryX=0;entryY=1;entryDx=0;entryDy=0;fontFamily=Over the Rainbow;fontSource=https%3A%2F%2Ffonts.googleapis.com%2Fcss%3Ffamily%3DOver%2Bthe%2BRainbow;fontSize=18;horizontal=0;" edge="1" parent="-Evwn0WYxXY8F1ZthDra-4" source="Wdb9buxMbOkoy24LBLcs-14" target="Wdb9buxMbOkoy24LBLcs-14">
          <mxGeometry relative="1" as="geometry">
            <Array as="points">
              <mxPoint x="105" y="28" />
              <mxPoint x="37" y="28" />
              <mxPoint x="37" y="184" />
              <mxPoint x="105" y="184" />
            </Array>
          </mxGeometry>
        </mxCell>
        <mxCell id="Wdb9buxMbOkoy24LBLcs-22" value="optimize" style="edgeLabel;html=1;align=center;verticalAlign=middle;resizable=0;points=[];fontSize=18;fontFamily=Over the Rainbow;horizontal=0;" vertex="1" connectable="0" parent="Wdb9buxMbOkoy24LBLcs-19">
          <mxGeometry x="-0.1032" relative="1" as="geometry">
            <mxPoint as="offset" />
          </mxGeometry>
        </mxCell>
        <mxCell id="-Evwn0WYxXY8F1ZthDra-5" style="edgeStyle=orthogonalEdgeStyle;rounded=1;orthogonalLoop=1;jettySize=auto;html=1;entryX=0.25;entryY=0;entryDx=0;entryDy=0;sketch=1;curved=1;fontFamily=Over the Rainbow;fontSource=https%3A%2F%2Ffonts.googleapis.com%2Fcss%3Ffamily%3DOver%2Bthe%2BRainbow;fontSize=16;" parent="1" source="-Evwn0WYxXY8F1ZthDra-2" target="-Evwn0WYxXY8F1ZthDra-11" edge="1">
          <mxGeometry relative="1" as="geometry" />
        </mxCell>
        <mxCell id="Wdb9buxMbOkoy24LBLcs-15" style="edgeStyle=orthogonalEdgeStyle;curved=1;sketch=1;orthogonalLoop=1;jettySize=auto;html=1;entryX=0;entryY=0.5;entryDx=0;entryDy=0;fontFamily=Over the Rainbow;fontSource=https%3A%2F%2Ffonts.googleapis.com%2Fcss%3Ffamily%3DOver%2Bthe%2BRainbow;fontSize=18;exitX=0;exitY=1;exitDx=0;exitDy=0;" edge="1" parent="1" source="Wdb9buxMbOkoy24LBLcs-9" target="-Evwn0WYxXY8F1ZthDra-4">
          <mxGeometry relative="1" as="geometry" />
        </mxCell>
        <mxCell id="Wdb9buxMbOkoy24LBLcs-24" value="Result" style="ellipse;whiteSpace=wrap;html=1;aspect=fixed;fontFamily=Over the Rainbow;fontSource=https%3A%2F%2Ffonts.googleapis.com%2Fcss%3Ffamily%3DOver%2Bthe%2BRainbow;fontSize=18;sketch=1;shadow=1;fillColor=#dae8fc;strokeColor=#6c8ebf;" vertex="1" parent="1">
          <mxGeometry x="349" y="904" width="80" height="80" as="geometry" />
        </mxCell>
      </root>
    </mxGraphModel>
  </diagram>
</mxfile>
